# xmcd
#
# Track frame offsets: 
#        150
#        73824
#        106028
#        177731
#
# Disc length: 3333 seconds
#
# Revision: 0
# Processed by: cddbd v1.5.2PL0 Copyright (c) Steve Scherf et al.
# Submitted via: ExactAudioCopy v0.95b3
#
DISCID=340d0304
DTITLE=The Beatles  - Kum Back jan 6-8 - Disc 5  FLAC
DYEAR=1900
DGENRE=
TTITLE0=Nagra Roll 069B
TTITLE1=Nagra Roll 070B
TTITLE2=Nagra Roll 071B
TTITLE3=Nagra Roll 072B
EXTD=
EXTT0=
EXTT1=
EXTT2=
EXTT3=
PLAYORDER=
